<?xml version="1.0" standalone="no"?>
<!DOCTYPE svg PUBLIC "-//W3C//DTD SVG 20010904//EN"
 "http://www.w3.org/TR/2001/REC-SVG-20010904/DTD/svg10.dtd">
<svg version="1.0" xmlns="http://www.w3.org/2000/svg"
 width="256.000000pt" height="256.000000pt" viewBox="0 0 256.000000 256.000000"
 preserveAspectRatio="xMidYMid meet">

<g transform="translate(0.000000,256.000000) scale(0.100000,-0.100000)"
fill="#000000" stroke="none">
<path d="M183 2413 c-12 -2 -34 -18 -48 -34 l-25 -31 0 -385 0 -385 29 -29 29
-29 206 0 206 0 2 -227 3 -228 448 -3 c374 -2 447 -4 447 -16 0 -8 -9 -65 -19
-128 -45 -263 -36 -378 34 -485 19 -29 35 -55 35 -58 0 -3 -13 -5 -29 -5 -37
0 -53 -20 -49 -62 4 -41 32 -46 36 -6 l3 28 235 0 234 0 0 -70 0 -70 -231 0
c-209 0 -233 2 -245 18 -13 16 -15 16 -28 0 -12 -17 -57 -18 -627 -20 -538 -3
-614 -5 -614 -18 0 -13 125 -15 1058 -18 1005 -2 1058 -1 1055 15 -3 16 -20
18 -161 21 l-157 3 0 67 c0 82 -17 112 -62 112 -20 0 -28 4 -25 13 3 6 24 53
45 103 50 113 87 233 107 348 17 98 20 262 6 298 -5 13 -36 57 -70 98 l-61 74
0 108 0 108 209 0 c288 0 274 -16 269 315 -3 192 -4 200 -23 200 -19 0 -20 -8
-23 -219 -2 -187 -5 -223 -19 -238 -14 -16 -36 -18 -215 -18 l-198 0 0 49 c0
46 2 50 28 55 15 2 85 4 155 3 85 -1 132 2 138 9 5 7 8 133 7 300 l-3 289
-1005 0 -1005 0 0 -299 0 -299 158 0 157 1 0 -54 0 -54 -199 0 c-195 0 -200 1
-215 22 -14 19 -16 73 -16 389 0 342 1 367 18 382 17 16 108 17 1100 17 969 0
1082 -2 1096 -16 12 -12 16 -37 16 -103 0 -61 4 -92 13 -100 25 -20 37 9 37
94 0 100 -19 145 -70 162 -26 9 -298 12 -1095 11 -583 0 -1070 -3 -1082 -5z
m2047 -448 l0 -255 -140 0 -140 0 0 74 0 74 45 11 c83 21 109 111 50 170 l-25
26 -738 3 c-541 2 -744 -1 -765 -9 -39 -16 -57 -46 -57 -95 0 -50 33 -89 85
-98 l35 -7 0 -74 0 -75 -140 0 -140 0 0 255 0 255 965 0 965 0 0 -255z m-1650
5 c0 -55 -2 -60 -22 -60 -44 0 -73 51 -49 88 4 7 21 17 37 22 16 4 30 9 32 9
1 1 2 -26 2 -59z m1325 -300 l0 -355 -637 -3 -638 -2 0 353 c0 195 3 356 6
359 3 3 290 5 637 5 l632 -2 0 -355z m113 337 c6 -5 12 -24 12 -43 0 -35 -20
-54 -59 -54 -19 0 -21 6 -21 53 0 30 3 56 6 59 7 7 45 -2 62 -15z m-108 -768
l0 -31 -67 5 c-38 3 -84 9 -104 12 -23 4 -39 3 -43 -4 -5 -8 -164 -11 -537
-11 l-529 0 0 30 0 30 640 0 640 0 0 -31z m126 -119 c23 -48 14 -229 -20 -366
-24 -97 -85 -264 -127 -345 l-19 -39 -139 0 -139 0 -36 49 c-72 98 -79 126
-73 290 3 80 12 182 21 226 28 139 15 125 106 125 l80 0 26 -57 c47 -107 48
-96 -6 -163 -67 -84 -93 -142 -98 -218 -4 -56 -3 -62 15 -62 17 0 21 9 26 58
6 70 28 116 96 201 28 35 51 70 51 78 0 9 -22 67 -50 130 -55 126 -57 135 -35
153 23 19 36 3 115 -136 48 -85 70 -134 70 -157 -1 -17 -11 -106 -24 -197 -13
-91 -20 -169 -15 -174 24 -27 36 7 57 170 29 219 29 236 -8 301 -16 29 -30 57
-30 62 0 5 15 11 33 13 l32 3 3 85 3 85 34 -40 c19 -22 42 -56 51 -75z m-378
8 l3 -28 -515 0 -516 0 0 30 0 30 513 -2 512 -3 3 -27z m250 5 c-4 -38 -49
-45 -72 -11 -24 34 -20 38 30 38 44 0 45 -1 42 -27z"/>
<path d="M814 1943 c-14 -65 -38 -90 -99 -103 l-30 -6 0 -164 0 -164 34 -7
c43 -9 81 -47 90 -90 l7 -34 449 0 449 0 9 36 c10 45 40 74 87 86 l35 9 0 164
0 164 -34 7 c-43 9 -81 47 -90 90 l-7 34 -447 3 -447 2 -6 -27z m871 -41 c7
-34 58 -86 98 -101 l27 -11 0 -124 c0 -123 0 -124 -24 -130 -37 -9 -84 -53
-98 -91 l-12 -35 -407 0 -407 0 -23 47 c-18 35 -35 53 -66 68 l-42 20 0 125 0
125 42 20 c32 15 48 32 66 68 l23 47 408 0 408 0 7 -28z"/>
<path d="M1153 1861 c-198 -116 -113 -416 117 -414 93 1 171 54 208 143 22 53
11 150 -22 200 -43 65 -97 94 -180 98 -64 3 -76 0 -123 -27z m195 -32 c132
-64 133 -252 1 -319 -118 -61 -261 26 -261 159 0 136 136 220 260 160z"/>
<path d="M1232 1795 c-43 -46 -50 -82 -22 -118 12 -15 31 -27 45 -27 27 0 49
-24 41 -45 -9 -24 -45 -18 -58 10 -7 15 -18 24 -27 22 -25 -5 -16 -58 14 -82
14 -12 25 -26 25 -33 0 -18 30 -15 37 4 3 9 17 27 29 40 45 44 18 117 -46 126
-19 2 -25 9 -25 28 0 36 37 40 53 5 7 -15 18 -25 25 -23 22 8 19 47 -6 72 -13
13 -27 31 -30 40 -9 23 -18 20 -55 -19z"/>
<path d="M77 184 c-20 -20 -6 -35 31 -32 47 4 52 32 7 36 -17 2 -34 0 -38 -4z"/>
<path d="M2397 184 c-21 -21 -5 -34 44 -34 43 0 50 3 47 18 -2 12 -14 18 -43
20 -23 2 -44 0 -48 -4z"/>
</g>
</svg>
