<?xml version="1.0" standalone="no"?>
<!DOCTYPE svg PUBLIC "-//W3C//DTD SVG 20010904//EN"
 "http://www.w3.org/TR/2001/REC-SVG-20010904/DTD/svg10.dtd">
<svg version="1.0" xmlns="http://www.w3.org/2000/svg"
 width="512.000000pt" height="512.000000pt" viewBox="0 0 512.000000 512.000000"
 preserveAspectRatio="xMidYMid meet">

<g transform="translate(0.000000,512.000000) scale(0.100000,-0.100000)"
fill="#000000" stroke="none">
<path d="M92 4193 c-18 -9 -45 -32 -60 -51 -22 -29 -27 -46 -27 -93 0 -62 17
-94 69 -133 l27 -21 2459 0 2459 0 27 21 c52 39 69 71 69 133 0 47 -5 64 -27
93 -57 74 181 68 -2530 68 -2232 0 -2436 -2 -2466 -17z"/>
<path d="M95 2706 c-67 -29 -105 -106 -91 -181 9 -47 59 -102 104 -115 26 -8
785 -10 2474 -8 l2437 3 27 21 c53 39 69 71 69 134 0 63 -16 95 -69 134 l-27
21 -2447 2 c-2019 2 -2452 0 -2477 -11z"/>
<path d="M95 1216 c-93 -40 -122 -160 -60 -241 52 -70 -40 -65 1325 -65 1371
0 1272 -5 1328 68 22 29 27 46 27 93 0 62 -17 94 -69 133 -27 21 -32 21 -1274
23 -1021 2 -1253 0 -1277 -11z"/>
</g>
</svg>
