<?xml version="1.0" standalone="no"?>
<!DOCTYPE svg PUBLIC "-//W3C//DTD SVG 20010904//EN"
 "http://www.w3.org/TR/2001/REC-SVG-20010904/DTD/svg10.dtd">
<svg version="1.0" xmlns="http://www.w3.org/2000/svg"
 width="256.000000pt" height="256.000000pt" viewBox="0 0 256.000000 256.000000"
 preserveAspectRatio="xMidYMid meet">

<g transform="translate(0.000000,256.000000) scale(0.100000,-0.100000)"
fill="#000000" stroke="none">
<path d="M1057 2466 c-62 -17 -116 -61 -147 -122 -25 -48 -25 -50 -28 -365
l-3 -317 -36 10 c-20 5 -120 8 -227 6 -182 -3 -194 -4 -241 -29 -62 -32 -110
-93 -124 -159 -7 -34 -11 -255 -11 -649 l0 -599 -56 -4 c-38 -3 -62 -11 -76
-26 -28 -28 -28 -77 1 -105 l22 -22 1149 0 1149 0 22 22 c29 28 29 77 1 105
-14 15 -38 23 -76 26 l-56 4 0 799 c0 539 -4 815 -11 849 -14 66 -62 127 -124
159 -47 25 -59 26 -232 29 -100 2 -202 0 -226 -6 l-45 -9 -4 117 c-3 101 -8
124 -29 166 -32 61 -93 109 -159 123 -71 15 -373 13 -433 -3z m438 -171 l25
-24 0 -1016 0 -1015 -240 0 -240 0 0 1015 0 1016 25 24 c24 25 26 25 215 25
189 0 191 0 215 -25z m644 -401 c21 -27 21 -32 21 -840 l0 -814 -240 0 -240 0
0 817 0 817 22 23 c21 23 25 23 219 23 l198 0 20 -26z m-1282 -396 l23 -21 0
-619 0 -618 -240 0 -240 0 0 617 0 617 22 23 c21 23 26 23 217 23 186 0 196
-1 218 -22z"/>
</g>
</svg>
