<?xml version="1.0" standalone="no"?>
<!DOCTYPE svg PUBLIC "-//W3C//DTD SVG 20010904//EN"
 "http://www.w3.org/TR/2001/REC-SVG-20010904/DTD/svg10.dtd">
<svg version="1.0" xmlns="http://www.w3.org/2000/svg"
 width="256.000000pt" height="256.000000pt" viewBox="0 0 256.000000 256.000000"
 preserveAspectRatio="xMidYMid meet">

<g transform="translate(0.000000,256.000000) scale(0.100000,-0.100000)"
fill="#000000" stroke="none">
<path d="M1155 2269 c-183 -19 -383 -102 -528 -219 -205 -165 -349 -431 -373
-688 l-7 -71 -101 -3 c-89 -3 -101 -5 -104 -22 -3 -13 56 -78 199 -222 112
-112 210 -204 218 -204 8 0 106 91 218 202 148 148 203 208 201 223 -3 19 -12
20 -120 23 l-118 3 0 43 c0 105 64 279 144 390 249 345 733 431 1077 191 74
-52 111 -57 135 -20 24 37 11 67 -53 123 -168 145 -362 229 -583 252 -52 5
-102 9 -110 8 -8 0 -51 -4 -95 -9z"/>
<path d="M1883 1518 c-148 -148 -203 -208 -201 -223 3 -19 12 -20 121 -23
l117 -3 0 -43 c0 -105 -64 -279 -144 -390 -249 -345 -733 -431 -1077 -191 -37
26 -75 45 -91 45 -29 0 -58 -31 -58 -64 0 -46 199 -197 338 -256 455 -193 976
-42 1251 363 85 125 153 315 167 465 l7 71 101 3 c89 3 101 5 104 22 3 13 -56
78 -199 222 -112 112 -210 204 -218 204 -8 0 -106 -91 -218 -202z"/>
<path d="M1210 1639 c-73 -15 -146 -56 -199 -114 -66 -73 -94 -146 -94 -245 0
-108 29 -178 107 -256 78 -78 148 -107 256 -107 108 0 178 29 256 107 78 78
107 148 107 256 0 108 -29 178 -107 256 -89 88 -210 127 -326 103z m219 -84
c54 -30 103 -82 137 -145 27 -50 27 -210 0 -260 -34 -63 -83 -115 -137 -145
-49 -27 -62 -30 -149 -30 -80 0 -102 4 -138 23 -55 30 -115 90 -143 144 -27
52 -36 164 -20 225 24 87 119 186 205 213 17 5 67 8 111 7 67 -3 89 -8 134
-32z"/>
<path d="M1200 1551 c-48 -15 -85 -39 -121 -78 -61 -64 -74 -97 -74 -193 0
-96 13 -129 74 -193 60 -64 103 -82 201 -82 98 0 141 18 201 82 61 64 74 97
74 193 0 96 -13 129 -74 193 -53 57 -104 80 -186 83 -38 2 -81 0 -95 -5z m164
-23 c55 -16 148 -109 164 -164 30 -104 9 -188 -68 -264 -76 -77 -160 -98 -264
-68 -55 16 -148 109 -164 164 -30 104 -9 188 68 264 30 31 71 61 90 67 48 15
124 15 174 1z"/>
<path d="M1262 1508 c-7 -7 -12 -16 -12 -20 0 -5 -18 -26 -40 -47 -30 -29 -40
-46 -40 -70 0 -64 37 -105 111 -120 21 -4 39 -16 48 -33 13 -23 13 -29 -2 -52
-20 -30 -61 -35 -88 -10 -10 9 -25 14 -34 11 -25 -10 -18 -46 13 -64 16 -9 33
-26 38 -37 11 -27 35 -27 49 -1 6 11 27 36 48 56 73 72 36 165 -74 188 -21 4
-39 16 -48 33 -13 23 -13 29 2 52 20 30 61 35 88 10 10 -9 25 -14 34 -11 25
10 18 46 -13 64 -16 9 -33 26 -38 37 -11 25 -26 30 -42 14z"/>
</g>
</svg>
